<svg height="222" viewBox="0 0 127 58.737502" width="480" xmlns="http://www.w3.org/2000/svg" xmlns:xlink="http://www.w3.org/1999/xlink"><clipPath id="a"><path d="m0 0h1190.55v841.89h-1190.55z"/></clipPath><clipPath id="b"><path d="m0 841.89h1190.55v-841.89h-1190.55z"/></clipPath><g clip-path="url(#a)" transform="matrix(.27636718452 0 0 -.27636718452 -101.51513460931 194.04258570273)"><path d="m0 0c0 26.648 20.137 48.595 46.021 51.455-22.484-6.305-38.972-26.955-38.972-51.455 0-24.506 16.488-45.148 38.972-51.457-25.884 2.861-46.021 24.805-46.021 51.457" fill="#4883d7" transform="translate(399.1152 600.4189)"/><path d="m0 0c2.289 1.01 4.818 1.572 7.477 1.572 10.24 0 18.533-8.299 18.533-18.53 0-10.235-8.293-18.532-18.533-18.532-2.659 0-5.188.565-7.477 1.571 6.512 2.877 11.053 9.386 11.053 16.961 0 7.569-4.541 14.085-11.053 16.958" fill="#0069cc" transform="translate(442.9199 617.3188)"/><path d="m0 0c2.707 16.9 17.35 29.811 35.012 29.811 17.66 0 32.304-12.911 35.011-29.811-7.154 11.852-20.16 19.775-35.011 19.775-14.858 0-27.86-7.923-35.012-19.775" fill="#0069cc" transform="translate(415.7051 606.0024)"/><path d="m0 0 2.713.043c48.189 0 87.25-39.064 87.25-87.25 0-48.189-39.061-87.255-87.25-87.255l-2.713.041c46.93 1.441 84.537 39.931 84.537 87.214 0 47.277-37.607 85.775-84.537 87.207" fill="#a5bdec" transform="translate(447.6211 687.5923)"/><path d="m0 0c0 1.102.027 2.195.076 3.281 1.717-36.664 31.987-65.867 69.078-65.867 37.086 0 67.362 29.203 69.076 65.867.053-1.086.077-2.179.077-3.281 0-38.195-30.961-69.154-69.153-69.154-38.195 0-69.154 30.959-69.154 69.154" fill="#789fe2" transform="translate(381.8496 600.3857)"/></g><g fill="#231f20"><path d="m0 0-14.099 31.949-14.1-31.949zm7.35-16.649-5.775 12.899h-31.348l-5.7-12.899h-4.35l23.549 52.498h4.425l23.549-52.498z" transform="matrix(.27636718452 0 0 -.27636718452 65.50455443529 29.36079700926)"/><path d="m0 0h-5.101l-27.673 25.874v-25.799h-4.05v52.423h4.05v-23.924l25.499 23.924h4.875v-.375l-26.399-24.749 28.799-27.074z" transform="matrix(.27636718452 0 0 -.27636718452 81.46503884571 33.96214543489)"/><g clip-path="url(#b)" transform="matrix(.27636718452 0 0 -.27636718452 -101.51513460931 194.04258570273)"><path d="m0 0c.075-11.85 7.575-23.399 22.499-23.399 15 0 22.574 11.549 22.574 23.399 0 12.149-7.5 23.324-22.574 23.324s-22.574-10.949-22.499-23.324m48.974-.075c-.076-13.8-8.85-27.074-26.475-27.074-17.624 0-26.474 13.35-26.474 27.224 0 14.099 8.775 26.999 26.474 26.999s26.549-12.975 26.475-27.149" transform="translate(666.7412 605.48)"/><path d="m0 0c-3.825 6.15-9.975 7.05-15.899 7.125-6.151 0-15.9-2.25-15.9-10.649 0-6.675 7.199-8.25 16.049-9.9 10.125-1.95 20.625-3.75 20.625-15.075-.075-11.849-12-14.699-20.774-14.699-8.175 0-17.475 3.375-21.525 11.4l3.6 1.799c3.225-6.375 11.474-9.524 17.925-9.524 6.449 0 16.723 1.8 16.723 11.099.075 7.875-8.624 9.6-17.249 11.25-9.599 1.875-19.424 3.825-19.424 13.499-.225 11.1 11.325 14.55 19.95 14.55 7.499 0 14.024-1.2 19.199-8.925z" transform="translate(760.4902 621.604)"/><path d="m0 0-2.073-4.665h4.146zm2.647-6.093h-5.309l-.924-2.059h-1.667l4.399 9.805h1.708l4.399-9.805h-1.667z" transform="translate(572.1313 555.3989)"/><path d="m0 0c-.7.686-1.737 1.05-2.647 1.05-2.298 0-3.628-1.722-3.614-3.796 0-1.793 1.064-3.529 3.614-3.529.84 0 1.61.21 2.395.868v1.989h-2.732v1.401h4.189v-4.021c-.981-1.078-2.2-1.709-3.852-1.709-3.601 0-5.155 2.396-5.155 5.001 0 2.83 1.807 5.239 5.155 5.239 1.302 0 2.619-.49 3.627-1.485z" transform="translate(585.293 554.7969)"/><path d="m0 0h-7.242v9.805h7.2v-1.527h-5.631v-2.647h5.407v-1.457h-5.407v-2.633h5.673z" transform="translate(595.4707 547.2466)"/><path d="m0 0v6.976h1.568v-9.806h-1.19l-5.561 6.92v-6.92h-1.583v9.806h1.204z" transform="translate(603.9688 550.0762)"/><path d="m0 0c-1.009-.995-2.312-1.457-3.685-1.457-3.557 0-5.154 2.452-5.169 5.029-.013 2.577 1.667 5.14 5.169 5.14 1.318 0 2.592-.49 3.586-1.484l-1.049-1.009c-.702.687-1.625 1.009-2.537 1.009-2.493 0-3.628-1.835-3.613-3.642.014-1.793 1.078-3.572 3.613-3.572.912 0 1.919.378 2.606 1.065z" transform="translate(615.9814 548.5073)"/><path d="m617.307 557.052h1.555v-9.805h-1.555z"/><path d="m0 0v-5.743c0-2.507-1.625-4.244-4.203-4.244-2.437 0-4.188 1.512-4.188 4.16h1.54c0-1.723.939-2.69 2.648-2.69s2.634 1.149 2.634 2.774v4.286h-3.152v1.457z" transform="translate(628.6094 557.0518)"/><path d="m0 0-2.073-4.665h4.146zm2.647-6.093h-5.308l-.925-2.059h-1.667l4.399 9.805h1.708l4.399-9.805h-1.667z" transform="translate(634.4307 555.3989)"/><path d="m0 0h7.158v-.714l-5.393-7.592h5.393v-1.499h-7.606v.882l5.295 7.48h-4.847z" transform="translate(643.1357 557.0518)"/><path d="m0 0-2.073-4.665h4.146zm2.647-6.093h-5.308l-.925-2.059h-1.667l4.399 9.805h1.708l4.399-9.805h-1.667z" transform="translate(655.9482 555.3989)"/><path d="m0 0-4.497-4.679 4.889-4.972v-.099h-1.961l-4.37 4.469v-4.469h-1.57v9.806h1.57v-4.23l3.992 4.23h1.947z" transform="translate(672.582 556.9961)"/><path d="m0 0c2.437 0 3.459 1.723 3.459 3.6 0 1.807-1.036 3.684-3.432 3.726-2.268 0-3.487-1.583-3.487-3.726.027-1.737 1.036-3.6 3.46-3.6m5.015 3.628c0-2.648-1.612-5.071-5.015-5.071-3.404 0-5.016 2.479-5.016 5.057 0 2.983 2.088 5.14 5.043 5.14 3.348-.014 4.988-2.479 4.988-5.126" transform="translate(677.6484 548.4795)"/><path d="m0 0-3.334-4.637h-.336l-3.292 4.637v-7.522h-1.569v9.805h1.821l3.235-4.595 3.222 4.595h1.821v-9.805h-1.568z" transform="translate(692.7705 554.7549)"/><path d="m0 0v-5.729c0-2.886-1.904-4.329-4.272-4.245-2.185.057-4.048 1.457-4.048 4.245v5.729h1.554v-5.729c0-1.779 1.037-2.746 2.494-2.802 1.569-.084 2.717.939 2.717 2.802v5.729z" transform="translate(704.7256 557.0381)"/><path d="m0 0v6.976h1.569v-9.806h-1.19l-5.562 6.92v-6.92h-1.583v9.806h1.205z" transform="translate(713.5449 550.0762)"/><path d="m717.308 557.052h1.555v-9.805h-1.555z"/><path d="m0 0-4.496-4.679 4.889-4.972v-.099h-1.961l-4.37 4.469v-4.469h-1.57v9.806h1.57v-4.23l3.992 4.23h1.946z" transform="translate(728.5664 556.9961)"/><path d="m0 0-2.073-4.665h4.146zm2.647-6.093h-5.308l-.925-2.059h-1.667l4.399 9.805h1.708l4.399-9.805h-1.667z" transform="translate(734.0117 555.3989)"/><path d="m0 0c-1.009-.995-2.312-1.457-3.685-1.457-3.557 0-5.154 2.452-5.169 5.029-.013 2.577 1.667 5.14 5.169 5.14 1.318 0 2.592-.49 3.586-1.484l-1.049-1.009c-.702.687-1.625 1.009-2.537 1.009-2.493 0-3.628-1.835-3.613-3.642.014-1.793 1.078-3.572 3.613-3.572.912 0 1.919.378 2.606 1.065z" transform="translate(748.2236 548.5073)"/><path d="m749.549 557.052h1.555v-9.805h-1.555z"/><path d="m0 0v-5.743c0-2.507-1.625-4.244-4.203-4.244-2.437 0-4.188 1.512-4.188 4.16h1.54c0-1.723.939-2.69 2.648-2.69s2.634 1.149 2.634 2.774v4.286h-3.152v1.457z" transform="translate(760.8516 557.0518)"/><path d="m0 0c-.462.672-1.4 1.079-2.424 1.092-1.316 0-2.268-.546-2.268-1.485 0-.952 1.092-1.218 2.38-1.4 2.018-.28 3.937-.841 3.937-3.04-.015-2.199-2.018-3.025-4.063-3.025-1.876 0-3.319.574-4.215 2.227l1.176.784c.701-1.191 1.919-1.611 3.053-1.611 1.177 0 2.48.393 2.48 1.625 0 1.065-1.135 1.429-2.507 1.611-1.947.266-3.796.757-3.796 2.858-.015 2.031 2.017 2.815 3.781 2.815 1.415 0 2.83-.336 3.656-1.653z" transform="translate(768.7598 554.8809)"/><path d="m0 0-4.497-4.679 4.889-4.972v-.099h-1.961l-4.37 4.469v-4.469h-1.57v9.806h1.57v-4.23l3.992 4.23h1.947z" transform="translate(779.3867 556.9961)"/><path d="m0 0-2.073-4.665h4.146zm2.647-6.093h-5.308l-.925-2.059h-1.667l4.399 9.805h1.708l4.399-9.805h-1.667z" transform="translate(784.8301 555.3989)"/><path d="m0 0c2.438 0 3.46 1.723 3.46 3.6 0 1.807-1.037 3.684-3.432 3.726-2.269 0-3.488-1.583-3.488-3.726.028-1.737 1.037-3.6 3.46-3.6m5.015 3.628c0-2.648-1.611-5.071-5.015-5.071s-5.015 2.479-5.015 5.057c0 2.983 2.087 5.14 5.043 5.14 3.348-.014 4.987-2.479 4.987-5.126" transform="translate(572.3975 531.6797)"/><path d="m0 0-3.333-4.637h-.337l-3.292 4.637v-7.522h-1.568v9.805h1.821l3.235-4.595 3.222 4.595h1.821v-9.805h-1.569z" transform="translate(587.7998 537.9551)"/><path d="m0 0v-3.558h2.983c1.303 0 1.878.827 1.878 1.751 0 .883-.575 1.807-1.863 1.807zm6.892-8.376h-1.835l-2.984 3.389h-2.073v-3.389h-1.568v9.819c1.526 0 3.039-.014 4.566-.014 2.269 0 3.46-1.555 3.46-3.208 0-1.401-.729-2.773-2.662-3.054l2.928-3.263z" transform="translate(593.3955 538.8232)"/><path d="m0 0h-7.242v9.805h7.2v-1.527h-5.631v-2.647h5.406v-1.457h-5.406v-2.633h5.673z" transform="translate(609.1631 530.4468)"/><path d="m0 0 2.045-1.919h.854l2.087 1.919v.084h-1.442l-1.051-.869-1.009.869h-1.484zm-1.219-2.942h7.158v-.714l-5.393-7.592h5.393v-1.499h-7.606v.882l5.295 7.48h-4.847z" transform="translate(611.9736 543.1938)"/><path d="m0 0v-5.743c0-2.507-1.625-4.244-4.203-4.244-2.437 0-4.188 1.512-4.188 4.16h1.54c0-1.723.939-2.69 2.648-2.69s2.634 1.149 2.634 2.774v4.286h-3.152v1.457z" transform="translate(627.1533 540.252)"/><path d="m0 0-2.073-4.665h4.146zm2.647-6.093h-5.308l-.925-2.059h-1.667l4.399 9.805h1.708l4.399-9.805h-1.667z" transform="translate(633.2549 538.5991)"/><path d="m642.926 540.252h1.555v-9.805h-1.555z"/><path d="m0 0v6.976h1.569v-9.806h-1.19l-5.562 6.92v-6.92h-1.583v9.806h1.205z" transform="translate(653.709 533.2764)"/><path d="m0 0c-.462.672-1.4 1.079-2.424 1.092-1.316 0-2.268-.546-2.268-1.485 0-.952 1.092-1.218 2.38-1.4 2.018-.28 3.937-.841 3.937-3.04-.015-2.199-2.018-3.025-4.063-3.025-1.876 0-3.319.574-4.215 2.227l1.176.784c.701-1.191 1.919-1.611 3.053-1.611 1.177 0 2.48.393 2.48 1.625 0 1.065-1.135 1.429-2.507 1.611-1.947.266-3.796.757-3.796 2.858-.015 2.031 2.017 2.815 3.781 2.815 1.415 0 2.83-.336 3.656-1.653z" transform="translate(667.0791 538.0811)"/><path d="m0 0h-3.222v1.415h8.012v-1.415h-3.207v-8.391h-1.583z" transform="translate(672.6914 538.8374)"/><path d="m0 0c2.437 0 3.459 1.723 3.459 3.6 0 1.807-1.036 3.684-3.432 3.726-2.268 0-3.487-1.583-3.487-3.726.027-1.737 1.036-3.6 3.46-3.6m5.015 3.628c0-2.648-1.612-5.071-5.015-5.071-3.404 0-5.016 2.479-5.016 5.057 0 2.983 2.088 5.14 5.043 5.14 3.348-.014 4.988-2.479 4.988-5.126" transform="translate(683.0801 531.6797)"/><path d="m0 0v-3.558h2.983c1.303 0 1.877.827 1.877 1.751 0 .883-.574 1.807-1.863 1.807zm6.892-8.376h-1.835l-2.984 3.389h-2.073v-3.389h-1.569v9.819c1.527 0 3.04-.014 4.566-.014 2.27 0 3.46-1.555 3.46-3.208 0-1.401-.728-2.773-2.661-3.054l2.928-3.263z" transform="translate(691.5205 538.8232)"/><path d="m700.045 540.252h1.555v-9.805h-1.555z"/><path d="m0 0h-3.222v1.415h8.012v-1.415h-3.207v-8.391h-1.583z" transform="translate(706.291 538.8374)"/><path d="m0 0h-1.639l-4.076 9.847h1.765l3.124-7.97 3.138 7.97h1.751z" transform="translate(717.1836 530.4048)"/><path d="m0 0h-7.242v9.805h7.2v-1.527h-5.631v-2.647h5.406v-1.457h-5.406v-2.633h5.673z" transform="translate(729.8828 530.4468)"/><path d="m0 0v-3.558h2.984c1.303 0 1.877.827 1.877 1.751 0 .883-.574 1.807-1.863 1.807zm6.892-8.376h-1.835l-2.984 3.389h-2.073v-3.389h-1.568v9.819c1.526 0 3.039-.014 4.566-.014 2.269 0 3.46-1.555 3.46-3.208 0-1.401-.729-2.773-2.662-3.054l2.928-3.263z" transform="translate(569.5537 522.0229)"/><path d="m0 0h-7.242v9.805h7.2v-1.527h-5.631v-2.647h5.407v-1.457h-5.407v-2.633h5.673z" transform="translate(585.3208 513.6465)"/><path d="m0 0h2.97c2.591 0 2.577 3.922 0 3.922h-2.97zm0-1.443v-3.012h-1.568v9.806c1.498 0 3.039.014 4.538.014 4.678 0 4.692-6.78 0-6.808z" transform="translate(588.9014 518.1011)"/><path d="m0 0v-5.729c0-2.886-1.904-4.329-4.271-4.245-2.186.057-4.049 1.457-4.049 4.245v5.729h1.554v-5.729c0-1.779 1.037-2.746 2.495-2.802 1.568-.084 2.716.939 2.716 2.802v5.729z" transform="translate(605.2012 523.438)"/><path d="m0 0h2.942c.869 0 2.073.28 2.073 1.358 0 1.051-1.162 1.527-2.059 1.527h-2.956zm0 4.286h2.956c1.177 0 1.765.463 1.765 1.233 0 .686-.603 1.415-1.779 1.415h-2.942zm2.942 4.062c1.863 0 3.333-.854 3.333-2.801 0-.827-.433-1.569-1.358-1.947 1.177-.35 1.667-1.513 1.667-2.255 0-2.144-1.709-2.802-3.642-2.802h-4.497v9.805z" transform="translate(609.0889 515.1035)"/><path d="m0 0v-8.348h5.169v-1.457h-6.738v9.805z" transform="translate(619.1279 523.4517)"/><path d="m625.776 523.452h1.555v-9.805h-1.555z"/><path d="m0 0-4.497-4.678 4.889-4.973v-.098h-1.961l-4.37 4.468v-4.468h-1.57v9.805h1.57v-4.23l3.992 4.23h1.947z" transform="translate(637.3027 523.3955)"/><path d="m0 0h-7.242v9.805h7.2v-1.527h-5.631v-2.647h5.406v-1.457h-5.406v-2.633h5.673z" transform="translate(646.1084 513.6465)"/><path d="m0 0c-.462.672-1.4 1.079-2.424 1.092-1.316 0-2.268-.546-2.268-1.485 0-.952 1.092-1.218 2.38-1.4 2.018-.28 3.937-.841 3.937-3.04-.015-2.199-2.018-3.025-4.063-3.025-1.876 0-3.319.574-4.215 2.227l1.176.784c.701-1.191 1.919-1.611 3.053-1.611 1.177 0 2.48.393 2.48 1.625 0 1.065-1.135 1.429-2.507 1.611-1.947.266-3.796.757-3.796 2.858-.015 2.031 2.017 2.815 3.781 2.815 1.415 0 2.83-.336 3.656-1.653z" transform="translate(657.4609 521.2808)"/><path d="m0 0v-8.348h5.169v-1.457h-6.738v9.805z" transform="translate(662.415 523.4517)"/><path d="m0 0c2.437 0 3.459 1.723 3.459 3.6 0 1.807-1.036 3.684-3.432 3.726-2.268 0-3.487-1.583-3.487-3.726.027-1.737 1.036-3.6 3.46-3.6m5.015 3.628c0-2.647-1.612-5.07-5.015-5.07-3.404 0-5.016 2.479-5.016 5.056 0 2.984 2.088 5.141 5.043 5.141 3.348-.014 4.988-2.48 4.988-5.127" transform="translate(673.2529 514.8789)"/><path d="m0 0h-1.639l-4.076 9.847h1.765l3.124-7.97 3.138 7.97h1.751z" transform="translate(684.4238 513.6045)"/><path d="m0 0h-7.242v9.805h7.2v-1.527h-5.631v-2.647h5.406v-1.457h-5.406v-2.633h5.673z" transform="translate(697.124 513.6465)"/><path d="m0 0v6.976h1.569v-9.806h-1.19l-5.562 6.92v-6.92h-1.583v9.806h1.205z" transform="translate(705.9014 516.4761)"/><path d="m709.93 523.452h1.555v-9.805h-1.555z"/><path d="m0 0v-5.743c0-2.507-1.625-4.244-4.203-4.244-2.437 0-4.188 1.512-4.188 4.16h1.54c0-1.723.939-2.69 2.648-2.69s2.634 1.149 2.634 2.774v4.286h-3.152v1.457z" transform="translate(721.498 523.4517)"/><path d="m0 0h-7.242v9.805h7.2v-1.527h-5.631v-2.647h5.406v-1.457h-5.406v-2.633h5.673z" transform="translate(731.0596 513.6465)"/></g></g></svg>